<svg width="60" height="60" viewBox="0 0 501 500" fill="none" xmlns="http://www.w3.org/2000/svg">
<circle cx="250.535" cy="250" r="250" fill="#0261F5"/>
<path fill-rule="evenodd" clip-rule="evenodd" d="M175.301 114.922C245.046 74.6552 333.686 96.7636 376.627 163.939L304.014 192.962C280.649 168.877 243.093 162.744 212.709 180.286C182.326 197.828 168.86 233.419 178.035 265.697L117.05 313.71C80.3999 242.948 105.58 155.176 175.301 114.922ZM124.359 326.31C167.441 393.019 255.763 414.878 325.301 374.73C394.863 334.568 420.087 247.103 383.801 176.425L322.383 224.779C331.559 257.057 318.093 292.648 287.709 310.19C257.326 327.732 219.77 321.598 196.404 297.513L124.359 326.31Z" fill="white"/>
</svg>
